<?xml version="1.0" encoding="UTF-8"?>
<svg height="484.5" viewBox="0 0 868.6 484.5" width="868.6" xmlns="http://www.w3.org/2000/svg">
  <defs>
    <style>.b{fill:#333;}</style>
  </defs>
  <path class="b" d="M246,235.7c5.8,1.3,12.5,3.4,17.6,5.8,3.4-5.5,5.4-9.1,7.7-14.1,1.1-2.5,1.4-3.1,1.4-3.7s-.3-.5-1-.5c-1.6,0-7,1.1-10.7,2.1-3.6,1-5.5,1.7-7.9,2.9-.7.4-1.6.6-2.1.6-1.8,0-3.9-1.6-5.6-4.5-1.1-1.8-1.7-3.6-1.7-5.1s0-.8.3-1.5c2.1,3.3,4,4.5,7,4.5s8.3-.7,13.6-1.7c5.6-1.1,6.6-1.3,8.1-2.2.8-.5,1.4-.7,1.9-.7h0c1,0,3.1,1.4,5.1,3.3,2,1.8,2.8,2.9,2.8,3.8s-.3,1.3-1.3,2.1c-1.3,1.1-1.6,1.5-5,7.2q-2.8,5-6.2,10c6.5,3.8,8.4,5.9,8.4,9.6s-1.1,4.8-2.7,4.8-1.3-.2-3.4-2.7c-1.7-2-4.4-4.7-6.3-6.3-4.8,6.1-8.8,10-14.3,14.1-4.9,3.6-8.6,5.7-14.5,8l-.5-.7c8.5-5.8,16.9-14.6,24.1-25.5-5.6-4.1-9.5-6.4-15.3-9.2l.3-.7Z"/>
  <path class="b" d="M308.7,268.2c2.8-2.9,4.3-5,6.2-8.5,3.4-6.2,5.3-11.7,6.6-19,.5-2.4.8-5.4.8-6.8,0-2.9-1.5-4.6-5-5.8.8-.5,1.3-.7,2.5-.7s4.8,1.1,7.5,2.7c2.3,1.4,3.5,2.7,3.5,4s-.2,1.3-.8,2.5c-.4.7-.4.8-2.6,8.5-2.1,7-5.6,13.2-10.2,17.6-2.6,2.5-4.7,4.1-8.1,6.1l-.5-.6ZM370.3,238.3c-2.8,5.4-4.6,8-7.9,11.7-3.6,4-9.8,9.3-14.6,12.6-1.9,1.3-2.2,1.5-3.5,2.8-.7.7-1.3,1-1.9,1-2.2,0-5.8-4.7-5.8-7.6s0-.5.3-1.4c.7-1.9.8-4.3.8-19s-.3-12.7-.5-14.7c-.5-2.6-2.1-4.1-5.2-4.9.8-.8,1.3-1,2.4-1,2.1,0,5.3.9,8.1,2.4,2.5,1.3,3.8,2.5,3.8,3.9s-.1,1.1-.9,2.6c-.3.8-.6,2.3-.9,5.3-.5,4.8-1.2,19-1.2,22.7s0,.9,0,1.6c8.8-3.4,19.7-11.1,26.3-18.6l.6.5Z"/>
  <path class="b" d="M87.4,208.4c-24.9-1.4-30.1-9.5-30.1-47.7V33l128.9,184.4h21.4V55.8c0-9.6.5-17.4,1.5-23.6,3.8,2.5,4.4,7.6,4.4,18.5v68.3c0,20.5,2.4,29.9,9.6,39.6,9.8,12.7,26.9,19.5,49.4,19.5s33-5.2,42.4-16.4v14c0,18.3-1.8,20.3-19.1,20.9v5.2h111l4.6-47.2-7-.8c-2.6,13.5-5,19.9-9.4,26.7-7.2,10.5-18.5,15.5-35.4,15.5h-18.5v-118.4c0-18.3,1.6-20.3,18.3-20.9v-5.2h-31.1c1.4-16.5,6.5-20.9,20.1-21.6v-5.4h-49.4v5.4c14.2.7,19,4.6,20.3,21.6h-22.5v5.2c16.7.6,18.3,2.6,18.3,20.9v68.9c-.1.3-.3.7-.4,1-6,14.3-19.1,22.3-36,22.3s-25.3-5.8-31.8-16.7c-5.2-8.8-7.2-20.1-7.2-39v-63.5c0-18.3,1.6-20.3,17.3-20.9v-5.2h-45.9c.8-2.2,1.6-4.1,2.7-5.8,4.6-7.5,10.7-10.4,24.6-11V0h-73.1v7.8c14.7.9,20.8,3.5,25.1,11,4,6.6,5.5,17.3,5.5,39v108.7L77.9,0H17.5v7.5c23.1,1.7,28,7.8,28,36.1v114.7c0,39.3-6.1,48.8-30.6,50v7.8h72.5v-7.8Z"/>
  <path class="b" d="M378.2,28.8v98.1c0,18.3-1.8,20.3-19.1,20.9v5.2h111l4.6-47.2-7-.8c-2.6,13.5-5,19.9-9.4,26.7-7.2,10.5-18.5,15.5-35.4,15.5h-18.5V28.8c0-18.3,1.6-20.3,18.3-20.9V2.6h-62.7v5.2c16.7.6,18.3,2.6,18.3,20.9Z"/>
  <path class="b" d="M476,68.8v98.3c0,18.3-1.6,20.1-18.1,20.7v5.2h62.3v-5.2c-16.5-.6-18.1-2.4-18.1-20.7v-45h8c12.9,0,19.1,4.2,25.5,16.7,5.8,11.3,11.5,26.1,20.9,54.3h39.6v-4.8c-9.4-.8-12.9-4.6-20.7-22.9-9.6-22.5-13.1-28.7-19.7-34.4-7.2-6.2-14.5-9.4-24.9-10.7v-1.6c31.8-2.4,46.8-15.1,46.8-39.4s-5.8-24.5-18.5-30.6c-8-3.8-22.1-6-39-6h-61.5v5.2c15.7.8,17.3,2.6,17.3,20.9ZM502.2,48.5h12.3c23.9,0,35.4,10.7,35.4,33.2s-12.9,34.6-36.8,34.6h-10.9V48.5Z"/>
  <path class="b" d="M590.4,23.5v88.3c0,16.7-1.4,18.3-17.2,18.8v4.7h57.9v-4.7c-15.6-.5-17.2-2.2-17.2-18.8V23.5c0-16.5,1.4-18.3,16.5-18.8V0h-56.5v4.7c15,.5,16.5,2.4,16.5,18.8Z"/>
  <path class="b" d="M637.1,112c4.6,3.4,9.2,6,26.3,14.3,25.1,12.3,33,20.5,33,34.2s-10.7,27.7-28.3,27.7-34.6-14.3-37.4-44.4h-8l-1.6,48c7.2-1.4,9.8-1.8,13.3-1.8s5.2.2,7.6.6c14.3,2.8,19.1,3.4,27.1,3.4,14.7,0,27.3-4,36.8-11.5,9-7,14.1-18.7,14.1-32.4s-3.6-20.9-10.5-27.9c-6.8-6.8-15.5-12.3-33.4-20.5-16.1-7.6-21.1-10.7-26.1-15.5-4.4-4.4-6.6-10.3-6.6-16.9,0-15.5,10.7-26.1,26.1-26.1s21.7,5.6,27.7,15.9c4.2,6.8,6,13.7,6.8,25.1h8l1.6-45c-6,2.2-8.8,2.8-12.1,2.8s-4.2-.2-7-.8c-15.1-3-17.9-3.4-24.5-3.4-10.9,0-18.9,1.4-25.7,4.6-14.7,6.8-23.7,21.1-23.7,37.6s5,23.5,16.5,32Z"/>
  <path class="b" d="M726.9,38.3v140.5c0,26.5-2.6,29.4-25.9,30v7.5h161.6l6-67.1-9.5-1.2c-8.4,44.9-24.5,59.9-63.4,59.9h-31.7v-99.9h20.7c31.1,0,38.3,5.8,41.8,33.7h9.2v-75.2h-9.2c-3.2,27.1-10.7,33.1-41.8,33.1h-20.7V9.2h28.2c40.6,0,55.9,13.2,61.9,53.3l10.1-.3-5.2-61.3h-158.1v7.5c23,.3,25.9,3.5,25.9,30Z"/>
  <path class="b" d="M227.7,267.3c1.7,0,2.6-1.4,2.6-2.9s-.9-3.2-2.6-3.2-4.3,0-8.1.3c-13.9.9-22,1.2-30.1,1.2s-22.8-.3-38.4-1.2c-6.6-.3-9.8-.3-11-.3-1.7,0-2.9,1.7-2.9,3.2s1.2,2.9,2.9,2.9c31.2.9,45.7,11,45.7,41.9v107.2l-109.2-147.4c-3.5-4.9-6.4-7.8-13-7.8H2.9c-1.2,0-2.9,1.4-2.9,2.9s1.2,2.9,2.9,2.9c31.2,0,34.7,1.2,34.7,26.9v135.3c0,34.4-11.3,41.6-34.7,43.1-1.7,0-2.9,1.4-2.9,2.9s1.2,2.9,2.9,2.9,2.3,0,6.4-.3c11.3-.9,22-1.2,31.8-1.2s23.7.3,39,1.2c6.1.3,8.4.3,9.2.3,1.7,0,2.6-1.4,2.6-2.9s-.9-2.9-2.6-2.9c-38.4-1.4-44.5-8.7-44.5-43.1v-138.4l139.3,187.3c1.2,1.7,2.9,2.6,4.6,2.6s4.3-.6,4.3-5.8v-165.6c0-30.9,11.6-40.7,34.7-41.9Z"/>
  <path class="b" d="M393.8,463.2c-7.2,10.5-18.5,15.5-35.4,15.5h-18.5v-118.4c0-18.3,1.6-20.3,18.3-20.9v-5.2h-31.2c1.3-17.3,6.3-21.9,20.1-22.6v-5.4h-49.4v5.4c14.4.7,19.2,4.7,20.4,22.6h-22.6v5.2c16.7.6,18.3,2.6,18.3,20.9v67.9c-.1.3-.3.7-.4,1-6,14.3-19.1,22.3-36,22.3s-25.3-5.8-31.8-16.7c-5.2-8.8-7.2-20.1-7.2-39v-63.5c0-18.3,1.6-20.3,17.3-20.9v-5.2h-60.9v5.2c15.9.6,17.5,2.6,17.5,20.9v68.3c0,20.5,2.4,30,9.6,39.6,9.8,12.7,26.9,19.5,49.4,19.5s33-5.2,42.4-16.4v15c0,18.3-1.8,20.3-19.1,20.9v5.2h111l4.6-47.2-7-.8c-2.6,13.5-5,19.9-9.4,26.7Z"/><path class="b" d="M357.8,429.2v5.2h111l4.6-47.2-7-.8c-2.6,13.5-5,19.9-9.4,26.7-7.2,10.5-18.5,15.5-35.4,15.5h-18.5v-118.4c0-18.3,1.6-20.3,18.3-20.9v-5.2h-62.7v5.2c16.7.6,18.3,2.6,18.3,20.9v98.1c0,18.3-1.8,20.3-19.1,20.9Z"/>
  <path class="b" d="M574.3,447.7c-9.6-22.5-13.1-28.7-19.7-34.4-7.2-6.2-14.5-9.4-24.9-10.7v-1.6c31.8-2.4,46.8-15.1,46.8-39.4s-5.8-24.5-18.5-30.6c-8-3.8-22.1-6-39-6h-61.5v5.2c15.7.8,17.3,2.6,17.3,20.9v98.3c0,18.3-1.6,20.1-18.1,20.7v5.2h62.3v-5.2c-16.5-.6-18.1-2.4-18.1-20.7v-45h8c12.9,0,19.1,4.2,25.5,16.7,5.8,11.3,11.5,26.1,20.9,54.3h39.6v-4.8c-9.4-.8-12.9-4.6-20.7-22.9ZM511.8,398.7h-10.9v-67.7h12.3c23.9,0,35.4,10.7,35.4,33.2s-12.9,34.6-36.8,34.6Z"/>
  <path class="b" d="M629.2,286.2v-4.7h-56.5v4.7c15,.5,16.5,2.4,16.5,18.8v88.3c0,16.7-1.4,18.3-17.2,18.8v4.7h57.9v-4.7c-15.6-.5-17.2-2.2-17.2-18.8v-88.3c0-16.5,1.4-18.3,16.5-18.8Z"/>
  <path class="b" d="M718.6,431.7c0-11.7-3.6-20.9-10.5-27.9-6.8-6.8-15.5-12.3-33.4-20.5-16.1-7.6-21.1-10.7-26.1-15.5-4.4-4.4-6.6-10.3-6.6-16.9,0-15.5,10.7-26.1,26.1-26.1s21.7,5.6,27.7,15.9c4.2,6.8,6,13.7,6.8,25.1h8l1.6-45c-6,2.2-8.8,2.8-12.1,2.8s-4.2-.2-7-.8c-15.1-3-17.9-3.4-24.5-3.4-10.9,0-18.9,1.4-25.7,4.6-14.7,6.8-23.7,21.1-23.7,37.6s5,23.5,16.5,32c4.6,3.4,9.2,6,26.3,14.3,25.1,12.3,33,20.5,33,34.2s-10.7,27.7-28.3,27.7-34.6-14.3-37.4-44.4h-8l-1.6,48c7.2-1.4,9.8-1.8,13.3-1.8s5.2.2,7.6.6c14.3,2.8,19.1,3.4,27.1,3.4,14.7,0,27.3-4,36.8-11.5,9-7,14.1-18.7,14.1-32.4Z"/>
  <path class="b" d="M863.6,414.6c-.9,0-1.4.6-1.7,1.4-11.8,38.3-30.5,54.7-67.4,54.7h-5.2c-14.4,0-20.2-4.3-20.2-24.8v-76.6h17.3c27.1,0,43.8,2.6,48.1,28.5.3,1.7,1.2,2.3,2,2.3s2-.9,2-2.6,0-1.7-.3-6.3c-.3-5.5-.6-15.6-.6-20.7s.3-17.6.6-24.5c.3-7.5.3-9.2.3-10.9s-1.2-2.3-2-2.3-1.7.6-2,2c-4,24.8-21.6,28.2-48.1,28.2h-17.3v-86.1c0-7.2,1.7-8.4,6.6-8.4h22.8c30.2,0,42.6,18.1,47.5,46.4.3,2.3,1.4,2.9,2.6,2.9s2-.9,2.3-3.5c.3-5.5.6-12.1.6-18.7,0-10.9-.3-19.3-.9-27.6-.3-5.5-1.2-6-6.6-6s-3.7,0-13,.6c-12.4.9-25.6.9-44.9.9h-32.5c-7.5,0-26.5-.6-42.3-1.2-5.2-.3-10.4-.3-11.2-.3-2,0-3.2,1.4-3.2,2.9s1.2,2.9,3.2,2.9c29.7,1.7,31.4,2.3,31.4,32v143.1c0,28.5-2.9,29.4-28.5,29.4s-3.2,1.4-3.2,2.9.9,2.9,3.2,2.9c3.5,0,11.5-.3,21.6-.9,8.9-.3,19.9-.6,30.5-.6,22.8,0,47.8.3,65.7.9,15,.6,19.6.6,26.8.6s9.5-.6,11.8-12.1c2-9.5,6.3-38.6,6.3-49s-1.2-2.3-2-2.3Z"/>
  <path class="b" d="M453.8,244.9c0-17.3-14.1-31.4-31.4-31.4s-31.4,14.1-31.4,31.4,14.1,31.4,31.4,31.4,31.4-14.1,31.4-31.4ZM422.4,230.3l20.9,20.9h-41.9l20.9-20.9Z"/>
  <path class="b" d="M488.2,271.7c6.8-5.2,11.5-10,15.9-16.1,5-7,8.7-13.9,10.7-20.3-8.6,1.1-11.8,1.7-17.8,3.4-4.6,1.2-5.6,1.5-7.8,2.6-.9.5-1.7.7-2.5.7-2.8,0-7.6-5.8-7.6-9.4s0-.8.4-1.5c1.7,3,3.9,4.4,7,4.4s14.4-1.7,23.2-3.2c4-.7,4.2-.7,5.7-1.8.6-.4,1.1-.5,1.9-.5s2.5.9,4.4,2.5c2.1,1.8,3.1,3.2,3.1,4.3s-.3,1.3-1.3,2.1c-1.1.9-1.5,1.5-3.1,4.4-7.8,14.8-17.8,24.1-31.7,29.4l-.4-.7ZM486.4,217.5c2.6,2.5,4.5,3.4,7.4,3.4,4.9,0,12.2-1.9,15.4-3.9.5-.4,1.1-.5,1.7-.5,1.3,0,3.8,1,5.3,2.1,1.2.9,1.7,1.6,1.7,2.5,0,1.5-1.1,2.1-5.2,2.7-6.7,1-13.2,1.7-15.9,1.7-5.2,0-8-1.9-11.2-7.7l.7-.5Z"/>
  <path class="b" d="M548.1,254.1c8.2-4.8,16.8-11.6,25-19.9,7.2-7.2,11.3-12.6,11.3-14.8s-1.5-3.1-4-4.4c.9-.2,1.3-.3,2.1-.3,2,0,4.2.7,6.8,2.3,3.1,1.8,4.9,3.8,4.9,5.4s-.3,1.6-2.7,3.3q-.3.2-4.4,4.1t-9.4,8.4c2.3,1.5,4,2.9,4.6,4,.6.9.7,1.6.7,6.6,0,3.1,0,4,.5,16.7,0,.9,0,1.9,0,2.5,0,2.7-.9,4.1-2.7,4.1s-6.2-4.1-6.2-6.9,0-1.1.4-2.1c.9-2.7,1.5-10,1.5-17.3s-.2-4.4-1.1-5.6c-5.6,4.2-10.3,7.4-14.3,9.5-4,2.1-8.8,4.1-12.6,5.3l-.3-.7Z"/>
  <path class="b" d="M621.7,269.5c5.6-3.2,14.1-10.5,19.9-17.2,7.1-8.1,14.1-18.9,16.6-25.1-5.1.7-14.9,3.5-18,5.2-1.3.7-1.7.8-2.5.8-1.7,0-3.6-1.5-5.4-4.6-1.2-1.9-1.7-3.6-1.7-5s0-.9.5-1.6c2,3.4,3.8,4.6,7,4.6s8.7-1,14.6-2.1c4.4-.9,4.8-1.1,6.5-2.1.7-.5,1.1-.6,1.8-.6s2.1.7,4,2.2c1.9,1.7,3,3.1,3,4.2s-.3,1.1-1.1,1.7c-1.4,1.1-1.9,1.7-3.9,4.9-3.1,4.8-5.1,7.7-8.4,11.9,8.7,3.8,14.3,7,17.4,10,1.9,1.9,2.8,4,2.8,6.6s-1.5,6-3.6,6-1.9-.8-2.7-2.7c-2.8-6.6-8.2-13.3-15-18.4-9.2,11-19.1,18-31.4,22.2l-.4-.7ZM665.9,215.1c3.2,1,5.2,1.9,7.2,3.2,3.1,2.1,4.5,4,4.5,6.2s-.8,2.6-2,2.6-1.4-.4-2.3-1.9c-2-3.5-4.6-6.4-7.9-8.9l.6-1.1ZM672.7,209.8c3.4.7,5.9,1.7,7.8,2.9,2.7,1.7,3.9,3.3,3.9,5.2s-.8,2.7-2,2.7-1.2-.4-2.2-1.8c-2.3-3.3-4.6-5.6-8-7.9l.5-1.1Z"/>
</svg>
